<svg id="visual" viewBox="0 0 900 600" width="900" height="600" xmlns="http://www.w3.org/2000/svg" xmlns:xlink="http://www.w3.org/1999/xlink" version="1.1"><g transform="translate(15.533645107432989 14.598159067114551)"><path d="M204.2 -348.7C262.1 -320.3 304.7 -260.4 326.8 -197C348.9 -133.7 350.4 -66.8 351.3 0.5C352.2 67.8 352.3 135.7 328.7 196.4C305.1 257.2 257.8 310.9 199.1 333.2C140.3 355.6 70.2 346.5 0.8 345.2C-68.7 343.9 -137.3 350.4 -188 323.4C-238.7 296.4 -271.3 235.9 -305.1 176.5C-339 117 -374 58.5 -381.2 -4.2C-388.4 -66.8 -367.9 -133.7 -337.2 -198.6C-306.5 -263.6 -265.8 -326.6 -207.9 -355.1C-150 -383.5 -75 -377.2 -0.9 -375.6C73.2 -374.1 146.3 -377.1 204.2 -348.7" fill="#EF0BCE"></path></g></svg>